<?xml version="1.0" standalone="no"?>
<!DOCTYPE svg PUBLIC "-//W3C//DTD SVG 20010904//EN"
 "http://www.w3.org/TR/2001/REC-SVG-20010904/DTD/svg10.dtd">
<svg version="1.0" xmlns="http://www.w3.org/2000/svg"
 width="512.000000pt" height="512.000000pt" viewBox="0 0 512.000000 512.000000"
 preserveAspectRatio="xMidYMid meet">

<g transform="translate(0.000000,512.000000) scale(0.100000,-0.100000)"
fill="#000000" stroke="none">
<path d="M212 4853 c-36 -14 -42 -57 -42 -283 l0 -220 -57 0 c-61 -1 -82 -10
-101 -47 -17 -31 -17 -1065 0 -1096 25 -47 13 -46 586 -47 l543 0 24 25 25 24
0 546 0 546 -25 24 -24 25 -401 0 -400 0 0 230 0 231 -25 24 c-23 24 -69 32
-103 18z m808 -1098 l0 -425 -425 0 -425 0 0 425 0 425 425 0 425 0 0 -425z"/>
<path d="M530 4001 c-83 -26 -151 -93 -174 -172 -20 -66 -20 -82 0 -148 29
-99 135 -181 235 -181 193 0 318 197 233 368 -53 107 -184 166 -294 133z m103
-173 c54 -28 63 -89 21 -132 -33 -33 -74 -34 -110 -2 -73 62 5 179 89 134z"/>
<path d="M1492 4853 c-36 -14 -42 -57 -42 -283 l0 -220 -57 0 c-61 -1 -82 -10
-101 -47 -17 -31 -17 -1065 0 -1096 25 -47 13 -46 586 -47 l543 0 24 25 25 24
0 546 0 546 -25 24 -24 25 -401 0 -400 0 0 230 0 231 -25 24 c-23 24 -69 32
-103 18z m808 -1098 l0 -425 -425 0 -425 0 0 425 0 425 425 0 425 0 0 -425z"/>
<path d="M1810 4001 c-83 -26 -151 -93 -174 -172 -20 -66 -20 -82 0 -148 29
-99 135 -181 235 -181 193 0 318 197 233 368 -53 107 -184 166 -294 133z m103
-173 c54 -28 63 -89 21 -132 -33 -33 -74 -34 -110 -2 -73 62 5 179 89 134z"/>
<path d="M2842 4837 c-21 -22 -22 -33 -24 -252 l-3 -230 -63 -5 c-110 -9 -102
37 -102 -597 l0 -544 25 -24 24 -25 543 0 c411 1 547 4 559 13 38 29 39 42 39
582 0 540 -1 553 -39 582 -12 9 -117 12 -413 13 l-397 0 -3 229 c-3 227 -3
230 -27 255 -32 34 -88 36 -119 3z m828 -1082 l0 -425 -425 0 -425 0 0 425 0
425 425 0 425 0 0 -425z"/>
<path d="M3157 3995 c-143 -55 -208 -218 -141 -353 81 -162 294 -190 416 -54
35 39 68 119 68 167 0 84 -66 187 -144 227 -52 26 -148 33 -199 13z m139 -179
c57 -48 20 -146 -55 -146 -17 0 -39 10 -55 26 -76 77 29 191 110 120z"/>
<path d="M4122 4837 c-21 -22 -22 -33 -24 -252 l-3 -230 -63 -5 c-110 -9 -102
37 -102 -597 l0 -544 25 -24 24 -25 543 0 c411 1 547 4 559 13 38 29 39 42 39
582 0 540 -1 553 -39 582 -12 9 -117 12 -413 13 l-397 0 -3 229 c-3 227 -3
230 -27 255 -32 34 -88 36 -119 3z m828 -1082 l0 -425 -425 0 -425 0 0 425 0
425 425 0 425 0 0 -425z"/>
<path d="M4437 3995 c-143 -55 -208 -218 -141 -353 81 -162 294 -190 416 -54
35 39 68 119 68 167 0 84 -66 187 -144 227 -52 26 -148 33 -199 13z m139 -179
c57 -48 20 -146 -55 -146 -17 0 -39 10 -55 26 -76 77 29 191 110 120z"/>
<path d="M459 2881 l-24 -19 -5 -364 -5 -363 -120 -5 c-108 -4 -125 -8 -167
-32 -25 -16 -61 -45 -78 -65 -60 -74 -61 -83 -58 -689 l3 -549 23 -45 c31 -58
57 -86 112 -118 43 -26 52 -27 217 -30 l173 -4 9 -36 c6 -20 22 -86 37 -147
41 -162 28 -155 277 -155 180 0 207 2 226 18 16 12 32 57 60 167 l38 150 1383
0 1383 0 38 -150 c28 -110 44 -155 60 -167 19 -16 46 -18 226 -18 249 0 236
-7 277 155 15 61 31 127 37 147 l9 36 173 4 c165 3 174 4 217 30 55 32 81 60
112 118 l23 45 3 549 c3 606 2 615 -58 689 -17 20 -53 49 -78 65 -42 24 -59
28 -167 32 l-120 5 -5 363 -5 364 -24 19 c-32 26 -74 24 -108 -5 l-28 -24 -3
-361 -3 -361 -1959 0 -1959 0 -3 361 -3 361 -28 24 c-34 29 -76 31 -108 5z
m4447 -939 c12 -9 27 -27 33 -39 8 -15 11 -177 11 -538 0 -361 -3 -523 -11
-538 -6 -12 -21 -30 -33 -39 -20 -17 -158 -18 -2346 -18 -2188 0 -2326 1
-2346 18 -12 9 -27 27 -33 39 -16 31 -16 1045 0 1076 6 12 21 30 33 39 20 17
158 18 2346 18 2188 0 2326 -1 2346 -18z m-3910 -1359 c-3 -10 -13 -49 -22
-86 l-17 -68 -105 3 -106 3 -18 70 c-9 39 -18 76 -18 83 0 9 36 12 146 12 134
0 145 -1 140 -17z m3414 5 c0 -7 -9 -44 -18 -83 l-18 -70 -106 -3 -105 -3 -17
68 c-9 37 -19 76 -22 86 -5 16 6 17 140 17 110 0 146 -3 146 -12z"/>
<path d="M4505 1766 c-160 -74 -201 -280 -82 -404 159 -166 437 -56 437 172 0
189 -187 311 -355 232z m160 -171 c59 -58 5 -158 -75 -140 -66 15 -88 97 -36
141 36 31 80 31 111 -1z"/>
<path d="M395 1696 c-52 -22 -55 -42 -55 -332 0 -301 3 -315 68 -334 26 -8
396 -10 1240 -8 l1204 3 24 28 24 28 0 284 0 284 -24 28 -24 28 -1214 2 c-989
2 -1219 0 -1243 -11z m2335 -331 l0 -175 -1107 2 -1108 3 -3 160 c-1 87 0 165
2 172 4 11 217 13 1111 13 l1105 0 0 -175z"/>
<path d="M3070 1625 l0 -85 85 0 85 0 0 85 0 85 -85 0 -85 0 0 -85z"/>
<path d="M3417 1703 c-4 -3 -7 -42 -7 -85 l0 -78 85 0 85 0 0 85 0 85 -78 0
c-43 0 -82 -3 -85 -7z"/>
<path d="M3757 1704 c-4 -4 -7 -43 -7 -86 l0 -78 90 0 91 0 -3 83 -3 82 -80 3
c-45 1 -84 0 -88 -4z"/>
<path d="M4100 1625 l0 -85 85 0 86 0 -3 83 -3 82 -82 3 -83 3 0 -86z"/>
<path d="M3070 1365 l0 -85 85 0 85 0 0 85 0 85 -85 0 -85 0 0 -85z"/>
<path d="M3410 1365 l0 -85 85 0 85 0 0 85 0 85 -85 0 -85 0 0 -85z"/>
<path d="M3750 1365 l0 -85 90 0 90 0 0 85 0 85 -90 0 -90 0 0 -85z"/>
<path d="M4100 1365 l0 -85 85 0 85 0 0 85 0 85 -85 0 -85 0 0 -85z"/>
<path d="M3072 1108 l3 -83 83 -3 82 -3 0 86 0 85 -85 0 -86 0 3 -82z"/>
<path d="M3412 1108 l3 -83 83 -3 82 -3 0 86 0 85 -85 0 -86 0 3 -82z"/>
<path d="M3752 1108 l3 -83 85 0 85 0 3 83 3 82 -91 0 -91 0 3 -82z"/>
<path d="M4100 1105 l0 -86 83 3 82 3 3 83 3 82 -86 0 -85 0 0 -85z"/>
</g>
</svg>
